<?xml version="1.0" standalone="no"?>
<!DOCTYPE svg PUBLIC "-//W3C//DTD SVG 20010904//EN"
 "http://www.w3.org/TR/2001/REC-SVG-20010904/DTD/svg10.dtd">
<svg version="1.0" xmlns="http://www.w3.org/2000/svg"
 width="54.000000pt" height="51.000000pt" viewBox="0 0 54.000000 51.000000"
 preserveAspectRatio="xMidYMid meet">

<g transform="translate(0.000000,51.000000) scale(0.100000,-0.100000)"
fill="#000000" stroke="none">
<path fill="#2D00FF" d="M247 426 c-56 -20 -104 -62 -112 -96 -4 -17 -15 -35 -26 -40 -10 -6
-26 -24 -34 -40 -16 -30 -21 -120 -7 -120 4 0 26 18 47 40 22 22 46 39 53 38
8 -2 22 -23 31 -47 13 -37 25 -49 71 -74 30 -17 59 -36 63 -44 13 -22 23 -16
67 43 39 51 44 65 53 139 5 45 7 94 3 108 -8 34 -40 64 -91 88 -47 22 -67 23
-118 5z m-39 -110 c5 -24 -16 -46 -44 -46 -36 0 -40 21 -8 47 32 25 47 25 52
-1z m140 -32 c25 -17 29 -52 8 -60 -19 -7 -65 26 -66 47 0 32 23 38 58 13z"/>
</g>
</svg>
